<?xml version="1.0" encoding="utf-8"?>
<!-- Generator: Adobe Illustrator 19.1.0, SVG Export Plug-In . SVG Version: 6.00 Build 0)  -->
<svg version="1.1" id="Layer_1" xmlns="http://www.w3.org/2000/svg" xmlns:xlink="http://www.w3.org/1999/xlink" x="0px" y="0px"
	 viewBox="0 0 595.3 841.9" style="enable-background:new 0 0 595.3 841.9;" xml:space="preserve">
<style type="text/css">
	.st0{fill:#FFFFFF;}
</style>
<g>
	<path class="st0" d="M2.1,725.9c0-197.3,0-394.6,0-592.1c197.2,0,394.4,0,591.9,0c0,197.3,0,394.7,0,592.1
		C396.8,725.9,199.5,725.9,2.1,725.9z M301.4,173.7c-45,0-89.8,2.5-134.1,10.6c-41.5,7.6-81.7,18.9-117.7,41.9
		c-7.4,4.7-11.8,10.4-11.2,19.2c1,16.2,1.1,32.6,3.4,48.7c7,48.2,22.4,93.9,42.9,138C111.3,489.4,144.3,542.7,185,591
		c27.9,33.2,59.4,62.5,96.4,85.6c13.3,8.3,26.2,9.8,39.4,1.3c14.2-9.2,28.9-18.2,41.7-29.2c41.5-35.4,73.4-79,102.1-125
		c42.4-67.8,79.8-137.9,95-217.5c3.5-18.2,3.5-37.2,4-55.9c0.3-11-5.6-19.3-15.3-25.3c-31.2-19.7-65.7-30.3-101.3-37.9
		C399,177,350.3,173.9,301.4,173.7z"/>
	<path d="M301.4,173.7c48.9,0.2,97.6,3.3,145.6,13.5c35.6,7.6,70.1,18.2,101.3,37.9c9.7,6.1,15.5,14.4,15.3,25.3
		c-0.5,18.7-0.5,37.6-4,55.9c-15.2,79.6-52.7,149.7-95,217.5c-28.7,46-60.6,89.5-102.1,125c-12.9,11-27.5,20-41.7,29.2
		c-13.1,8.5-26.1,7-39.4-1.3c-37-23.2-68.4-52.5-96.4-85.6c-40.7-48.3-73.7-101.7-100.3-158.9c-20.5-44.1-35.9-89.8-42.9-138
		c-2.3-16-2.4-32.4-3.4-48.7c-0.5-8.8,3.9-14.6,11.2-19.2c36.1-22.9,76.3-34.3,117.7-41.9C211.6,176.2,256.4,173.7,301.4,173.7z
		 M299.8,202.1c-103.8,1.3-184.1,82.9-183,185.8c1.1,99.6,84.1,180.8,183.7,179.8c103.3-1.1,183.6-83.7,182.5-185
		C481.8,281.8,399.3,202,299.8,202.1z M531.1,267.5c0.1-13.3-11.9-25.8-25.1-26.2c-14.1-0.3-26.4,11.8-26.4,26.2
		c0,13.6,11.5,25.3,25.3,25.7C518.4,293.5,530.9,281.3,531.1,267.5z M94.8,292.4c13.9-0.1,26.3-12.5,25.9-26
		c-0.4-13.6-13.1-25.8-26.5-25.5c-14,0.3-25.5,12.4-25.2,26.5C69.3,281.3,80.9,292.5,94.8,292.4z M326.7,621.2
		c0-13.9-12.3-26-26.1-25.8c-13.3,0.2-25.2,12.5-25.1,26.1c0.1,14.1,11.3,25.4,25.3,25.6C315.1,647.2,326.7,635.5,326.7,621.2z"/>
	<path class="st0" d="M299.8,202.1c99.5-0.1,182,79.7,183.2,180.6c1.2,101.3-79.1,183.9-182.5,185c-99.6,1-182.6-80.2-183.7-179.8
		C115.7,285,196,203.4,299.8,202.1z M456.5,386.1c-0.2-88.3-71.5-159.4-159.7-159.2c-87.6,0.2-158.8,71.7-158.6,159.5
		c0.1,88,71.8,159.1,160,158.8C385.5,545,456.8,473.3,456.5,386.1z"/>
	<path class="st0" d="M531.1,267.5c-0.1,13.8-12.6,26-26.3,25.7c-13.8-0.3-25.3-12-25.3-25.7c0-14.3,12.3-26.5,26.4-26.2
		C519.1,241.7,531.2,254.2,531.1,267.5z"/>
	<path class="st0" d="M94.8,292.4c-13.9,0.1-25.5-11.1-25.8-24.9c-0.3-14.1,11.2-26.3,25.2-26.5c13.4-0.3,26.1,11.9,26.5,25.5
		C121.1,279.8,108.7,292.2,94.8,292.4z"/>
	<path class="st0" d="M326.7,621.2c0,14.3-11.7,26-25.9,25.9c-14-0.1-25.2-11.5-25.3-25.6c-0.1-13.6,11.7-25.9,25.1-26.1
		C314.5,595.2,326.8,607.3,326.7,621.2z"/>
	<path d="M456.5,386.1c0.2,87.2-71,158.8-158.3,159.1c-88.2,0.3-159.9-70.8-160-158.8c-0.1-87.8,71-159.3,158.6-159.5
		C385.1,226.8,456.3,297.8,456.5,386.1z M296.9,533.4c81.2,0.2,147.6-65.7,147.8-146.8c0.2-81.2-65.7-147.6-146.8-147.8
		c-81.2-0.2-147.6,65.8-147.8,146.8C149.9,466.9,215.8,533.2,296.9,533.4z"/>
	<path class="st0" d="M296.9,533.4c-81.1-0.2-147-66.5-146.8-147.8c0.2-81,66.6-147,147.8-146.8c81.1,0.2,147,66.6,146.8,147.8
		C444.5,467.7,378.1,533.6,296.9,533.4z M357.3,454.6c-2.4,0-4.8,0-7.2,0c-14.8,0-29.6,0.1-44.4-0.1c-2.7,0-7.1,1.9-7.2-3.6
		c-0.1-6,4.6-3.5,7.5-4c1.7-0.3,3.4-0.1,5.2-0.1c24.9,0,49.8-0.1,74.8,0c11.1,0.1,19.7-4,24.9-14.1c15.8-30.5,14.3-61.3,1.1-92
		c-3.3-7.6-9.4-13.4-17.7-14.2c-9.2-1-18.6-0.2-28.7-0.2c0,8.6,0.2,16.9,0,25.2c-0.7,22.7-16.6,38.2-39.3,38.4
		c-18.5,0.1-37-0.1-55.5,0.1c-18.7,0.1-31.5,12.9-31.6,31.8c-0.1,17.5,0.2,35-0.1,52.5c-0.3,12.5,5.2,21.7,15.9,27.1
		c29.3,14.7,58.9,14.3,88.2-0.2c7.3-3.6,13.2-9.6,14.1-17.9C358.1,474.1,357.3,464.7,357.3,454.6z M297.5,318
		c2.1,6.5-0.2,7.9-5.4,7.9c-25.1-0.2-50.3-0.2-75.4,0c-16.8,0.1-29.3,7.9-35,23.6c-9.4,25.7-8.6,51.8,1.2,77.4
		c3.5,9.1,9.7,16.8,19.6,18.6c9.3,1.8,19,1.3,29.1,1.9c0-9.2,0-17.1,0-24.9c0.1-23.8,16.1-39.8,40-39.9c18.2-0.1,36.5,0.1,54.7,0
		c18.8-0.1,31.3-11.8,31.7-30.7c0.4-18.5,0.2-37,0.1-55.5c-0.1-12.9-6.4-22.3-17.7-27.7c-5.9-2.8-12.6-4.4-19.1-5.2
		c-21.2-2.5-42.3-2.6-63.1,3.4c-10,2.9-17.6,8.6-18.5,19.6c-0.8,10.2-0.2,20.5-0.2,31.5C258.9,318,278.1,318,297.5,318z"/>
	<path d="M357.3,454.6c0,10.1,0.8,19.5-0.2,28.7c-0.9,8.3-6.8,14.3-14.1,17.9c-29.3,14.5-58.9,14.9-88.2,0.2
		c-10.7-5.4-16.1-14.6-15.9-27.1c0.4-17.5,0-35,0.1-52.5c0.1-18.8,12.9-31.6,31.6-31.8c18.5-0.1,37,0.1,55.5-0.1
		c22.7-0.1,38.6-15.7,39.3-38.4c0.3-8.3,0-16.6,0-25.2c10.2,0,19.5-0.7,28.7,0.2c8.4,0.9,14.5,6.7,17.7,14.2
		c13.2,30.8,14.8,61.6-1.1,92c-5.2,10-13.7,14.2-24.9,14.1c-24.9-0.2-49.8,0-74.8,0c-1.7,0-3.5-0.2-5.2,0.1c-2.9,0.5-7.7-2-7.5,4
		c0.1,5.4,4.5,3.5,7.2,3.6c14.8,0.2,29.6,0.1,44.4,0.1C352.5,454.6,354.9,454.6,357.3,454.6z M343.1,481.3
		c0.2-6.3-4.6-11.4-10.8-11.6c-6.1-0.2-11.3,4.8-11.5,11c-0.2,6.2,4.7,11.4,10.8,11.5C337.9,492.4,342.9,487.6,343.1,481.3z"/>
	<path d="M297.5,318c-19.5,0-38.6,0-57.9,0c0-10.9-0.6-21.3,0.2-31.5c0.9-11,8.5-16.7,18.5-19.6c20.7-6,41.9-5.9,63.1-3.4
		c6.5,0.8,13.2,2.4,19.1,5.2c11.3,5.4,17.6,14.8,17.7,27.7c0.1,18.5,0.4,37-0.1,55.5c-0.4,18.8-12.9,30.6-31.7,30.7
		c-18.2,0.1-36.5,0-54.7,0c-23.9,0.1-39.9,16-40,39.9c0,7.9,0,15.7,0,24.9c-10.1-0.6-19.8-0.1-29.1-1.9c-9.9-1.9-16.1-9.5-19.6-18.6
		c-9.8-25.6-10.6-51.6-1.2-77.4c5.7-15.7,18.2-23.5,35-23.6c25.1-0.1,50.3-0.1,75.4,0C297.3,325.9,299.7,324.5,297.5,318z
		 M265.2,302.8c6.2-0.1,11-5.1,10.9-11.4c-0.1-6.2-5.2-11.2-11.3-11.1c-6,0.1-11,5.4-10.9,11.5C254,297.9,259.1,302.8,265.2,302.8z"
		/>
	<path class="st0" d="M343.1,481.3c-0.2,6.3-5.2,11.1-11.4,10.9c-6.1-0.2-11-5.4-10.8-11.5c0.2-6.2,5.4-11.1,11.5-11
		C338.5,469.9,343.3,475,343.1,481.3z"/>
	<path class="st0" d="M265.2,302.8c-6.2,0.1-11.2-4.8-11.3-11c-0.1-6.1,4.9-11.4,10.9-11.5c6.1-0.1,11.1,4.9,11.3,11.1
		C276.2,297.6,271.4,302.7,265.2,302.8z"/>
</g>
</svg>
